# xmcd
#
# Track frame offsets:
#	150
#	15867
#	33466
#	43387
#	52928
#	62687
#	75256
#	88292
#	98902
#	115099
#	126031
#	135588
#	146260
#	158822
#	168671
#	179846
#	189773
#	207576
#
# Disc length: 2941
#
# Revision: 2
# Processed by: cddbd v1.5.1PL0 Copyright (c) Steve Scherf et al.
# Submitted via: EasyCDDAExtractor 6.0.0.1
# Normalized: r1:DSETVAR1
#
DISCID=f00b7b12
DTITLE=Various Artist - Shot of Country cd1
DYEAR=2000
DGENRE=Country
TTITLE0=Billie Jo Spears - Blanket on the ground
TTITLE1=Skeeter Davis - Always on my mind
TTITLE2=Johnny Cash - Ballad of a teenage queen
TTITLE3=Merle Travis - 16 tons
TTITLE4=Ned Miller - From a jack to a king
TTITLE5=Frankie Laine - High noon
TTITLE6=Freddy Fender - Silver wings
TTITLE7=Faron Young - If you ain't lovin'
TTITLE8=Lynn Anderson - The devil went down on Georgia
TTITLE9=Dolly Parton - It wasn't god who made honkytonk angels
TTITLE10=Dave Duddley - Six days
TTITLE11=Patsy Cline - I don't wana
TTITLE12=Gene Autry - Goodnight Irene
TTITLE13=Willie Nelson - Let's pretend
TTITLE14=Merle Kilgore - Love has made you beautiful
TTITLE15=Hank Locklin - Please help me i'm falling
TTITLE16=Glen Campbell - Southern nights
TTITLE17=Charlie Rich - Behind closed doors
EXTD=
EXTT0=
EXTT1=
EXTT2=
EXTT3=
EXTT4=
EXTT5=
EXTT6=
EXTT7=
EXTT8=
EXTT9=
EXTT10=
EXTT11=
EXTT12=
EXTT13=
EXTT14=
EXTT15=
EXTT16=
EXTT17=
PLAYORDER=
